<?xml version="1.0" encoding="utf-8"?>
<svg xmlns="http://www.w3.org/2000/svg" viewBox="-600 -600 1500 1500">
  <defs>
    <style>
      .a {
        fill: #b8003c;
      }
      .b {
        fill: #fff;
      }
    </style>
  </defs>
  <circle class="a" cx="299.70999" cy="299.70999" r="299.70999"/>
  <path class="b" d="M 222.008 272.684 C 223.886 247.61 224.98 224.212 227.433 200.956 C 231.854 159.015 253.501 135.009 294.983 126.724 C 309.36 123.853 324.317 123.301 339.043 122.894 C 363.734 122.21 370.93 129.701 371.002 154.484 C 371.129 198.216 370.048 241.989 371.58 285.67 C 373.415 337.974 376.832 390.249 380.96 442.427 C 382.082 456.617 376.104 460.208 364.742 460.583 C 354.347 460.927 343.399 462.651 342.767 446.171 C 341.403 410.543 338.952 374.957 336.91 338.739 C 309.051 338.739 282.313 338.739 251.126 338.739 C 251.126 375.95 250.702 411.399 251.362 446.827 C 251.586 458.855 248.84 464.421 235.55 465.597 C 219.651 467.004 212.925 462.952 213.847 446.012 C 216.961 388.839 219.241 331.622 222.008 272.684 M 334.873 214.645 C 334.873 196.974 334.873 179.302 334.873 158.702 C 319.58 161.004 304.79 160.524 292.563 165.887 C 281.886 170.569 267.804 180.744 266.142 190.377 C 259.753 227.411 257.75 265.202 253.959 304.27 C 282.74 302.834 308.242 301.561 334.861 300.233 C 334.861 272.123 334.861 245.233 334.873 214.645 Z" style=""/>
  <path class="a" d="M 334.867 216.494 C 334.861 245.233 334.861 272.123 334.861 300.233 C 308.242 301.561 282.74 302.834 253.959 304.27 C 257.75 265.202 259.753 227.411 266.142 190.377 C 267.804 180.744 281.886 170.569 292.563 165.887 C 304.79 160.524 319.58 161.004 334.873 158.702 C 334.873 179.302 334.873 196.974 334.867 216.494 Z" style=""/>
</svg>