<svg id="Layer_1" data-name="Layer 1" xmlns="http://www.w3.org/2000/svg" viewBox="-600 -600 1500 1500">
    <defs>
    <style>
      .cls-1 {
        fill: #694c9c;
      }
      .cls-2 {
        fill: #fff;
      }
    </style>
  </defs>
  <circle class="cls-1" cx="299.71" cy="299.71" r="299.71"/>
  <g>
    <path class="cls-2" d="M163.6,443.45V325.51c0-57.45-3.47-121.19-10.4-191.65-.87-5.85,7.15-8.67,17.34-8.67H272c3.25,0,3.47,6.72,3.47,23.41,0,6.94-3.25,10.41-9.54,10.41-30.14,0-51,.43-74.58,1.73,0,4.34,1.74,38.81,5.2,103.2l60.71-1.73c4.55,0,6.94,6.28,6.94,19.07,0,11.06-3.47,16.48-10.41,16.48l-56.37,2.6c1.09,59.4,2.39,99.51,3.47,122.06,15.39-.87,43.79-2.39,72.41-4.12,7.81,0,8.67,5.64,8.67,22.55,0,10.4-3.25,14.52-16.47,15.61-39.68,2.38-74.37,3.46-96.7,3.46C163.17,459.92,163.6,451,163.6,443.45Z" transform="translate(-0.06 0)"/>
    <path class="cls-2" d="M335.09,443.45V325.51c0-57.45-3.47-121.19-10.41-191.65-.87-5.85,7.16-8.67,17.35-8.67H443.49c3.25,0,3.47,6.72,3.47,23.41,0,6.94-3.26,10.41-9.54,10.41-30.14,0-50.95.43-74.58,1.73,0,4.34,1.73,38.81,5.2,103.2l60.7-1.73c4.56,0,6.94,6.28,6.94,19.07,0,11.06-3.47,16.48-10.4,16.48l-56.37,2.6c1.08,59.4,2.38,99.51,3.47,122.06,15.39-.87,43.79-2.39,72.41-4.12,7.8,0,8.67,5.64,8.67,22.55,0,10.4-3.25,14.52-16.48,15.61-39.67,2.38-74.36,3.46-96.69,3.46C334.65,459.92,335.09,451,335.09,443.45Z" transform="translate(-0.06 0)"/>
  </g>
</svg>
