<?xml version="1.0" encoding="UTF-8"?>
<svg id="Layer_1" data-name="Layer 1" xmlns="http://www.w3.org/2000/svg" width="22mm" height="22mm" viewBox="0 0 62.36 62.36">
  <defs>
    <style>
      .cls-1 {
        fill: #b51227;
      }
    </style>
  </defs>
  <path class="cls-1" d="m27.45,26.43c-.02.25-.34.34-.47.13-2.01-3.24-3.13-6.89-3.13-10.78,0-6.02,2.71-11.51,7.2-15.71.11-.1.28-.09.37.01,2.67,2.8,4.76,5.9,6.26,9.13.05.11.01.25-.09.32-5.87,4.12-9.72,10.14-10.14,16.9Z"/>
  <path class="cls-1" d="m31.9,25.18c-.19.17-.48,0-.43-.24.87-3.71,2.66-7.09,5.41-9.83,4.26-4.26,10.06-6.22,16.2-6.02.14,0,.26.13.26.27-.09,3.86-.81,7.53-2.03,10.88-.04.12-.16.18-.29.16-7.07-1.24-14.04.3-19.12,4.78Z"/>
  <path class="cls-1" d="m35.93,27.45c-.25-.02-.34-.34-.13-.47,3.24-2.01,6.89-3.13,10.78-3.13,6.02,0,11.51,2.71,15.71,7.2.1.11.09.28-.01.37-2.8,2.67-5.9,4.76-9.13,6.26-.11.05-.25.01-.32-.09-4.12-5.87-10.14-9.72-16.9-10.14Z"/>
  <path class="cls-1" d="m37.18,31.9c-.17-.19,0-.48.24-.43,3.71.87,7.09,2.66,9.83,5.41,4.26,4.26,6.22,10.06,6.02,16.2,0,.14-.13.26-.27.26-3.86-.09-7.53-.81-10.88-2.03-.12-.04-.18-.16-.16-.29,1.24-7.07-.3-14.04-4.78-19.12Z"/>
  <path class="cls-1" d="m34.91,35.93c.02-.25.34-.34.47-.13,2.01,3.24,3.13,6.89,3.13,10.78,0,6.02-2.71,11.51-7.2,15.71-.11.1-.28.09-.37-.01-2.67-2.8-4.76-5.9-6.26-9.13-.05-.11-.01-.25.09-.32,5.87-4.12,9.72-10.14,10.14-16.9Z"/>
  <path class="cls-1" d="m30.46,37.18c.19-.17.48,0,.43.24-.87,3.71-2.66,7.09-5.41,9.83-4.26,4.26-10.06,6.22-16.2,6.02-.14,0-.26-.13-.26-.27.09-3.86.81-7.53,2.03-10.88.04-.12.16-.18.29-.16,7.07,1.24,14.04-.3,19.12-4.78Z"/>
  <path class="cls-1" d="m26.43,34.91c.25.02.34.34.13.47-3.24,2.01-6.89,3.13-10.78,3.13-6.02,0-11.51-2.71-15.71-7.2-.1-.11-.09-.28.01-.37,2.8-2.67,5.9-4.76,9.13-6.26.11-.05.25-.01.32.09,4.12,5.87,10.14,9.72,16.9,10.14Z"/>
  <path class="cls-1" d="m25.18,30.46c.17.19,0,.48-.24.43-3.71-.87-7.09-2.66-9.83-5.41-4.26-4.26-6.22-10.06-6.02-16.2,0-.14.13-.26.27-.26,3.86.09,7.53.81,10.88,2.03.12.04.18.16.16.29-1.24,7.07.3,14.04,4.78,19.12Z"/>
</svg>