<?xml version="1.0" encoding="UTF-8"?>
<svg id="Layer_1" data-name="Layer 1" xmlns="http://www.w3.org/2000/svg" width="229.31mm" height="229.31mm" viewBox="0 0 650.01 650">
  <defs>
    <style>
      .cls-1 {
        fill: #cc3428;
      }
    </style>
  </defs>
  <path class="cls-1" d="m310.49,650l7.26-139.19c.39-8.45-6.15-15.62-14.6-16.01-1.1-.05-2.21.02-3.3.21l-138.55,24.35,18.71-51.61c1.56-4.21.26-8.94-3.23-11.77L25.01,333.06l34.19-15.97c4.78-2.26,7.13-7.72,5.48-12.74l-30-92.26,87.42,18.55c4.88,1.02,9.81-1.55,11.77-6.13l16.94-39.84,68.23,73.23c3.98,4.2,10.62,4.38,14.82.4,2.6-2.46,3.76-6.08,3.08-9.59l-32.9-169.68,52.74,30.48c5,2.93,11.42,1.25,14.35-3.74.12-.2.23-.4.33-.61L325.01,0l53.55,105.16c2.59,5.18,8.89,7.28,14.07,4.69.21-.1.41-.21.61-.33l52.74-30.48-32.9,169.68c-1.09,5.69,2.63,11.18,8.31,12.28,3.51.68,7.13-.49,9.59-3.08l68.23-73.23,16.94,39.84c1.97,4.58,6.89,7.15,11.77,6.13l87.42-18.55-30,92.26c-1.64,5.02.71,10.48,5.48,12.74l34.19,15.97-151.77,122.9c-3.49,2.83-4.78,7.56-3.23,11.77l18.71,51.61-138.55-24.35c-8.34-1.43-16.26,4.16-17.7,12.5-.19,1.09-.26,2.2-.21,3.3l7.26,139.19h-29.03Z"/>
</svg>