<?xml version="1.0" encoding="utf-8"?>
<!-- Generator: Adobe Illustrator 24.1.1, SVG Export Plug-In . SVG Version: 6.00 Build 0)  -->
<svg version="1.1" id="Layer_1" xmlns="http://www.w3.org/2000/svg" xmlns:xlink="http://www.w3.org/1999/xlink" x="0px" y="0px"
	 viewBox="0 0 512 512" style="enable-background:new 0 0 512 512;" xml:space="preserve">
<g>
	<polygon points="480.7,5.4 506.6,31.3 232.4,305.4 206.6,279.6 	"/>
	<polygon points="512,182.9 475.4,182.9 475.4,36.6 329.1,36.6 329.1,0 512,0 	"/>
	<path d="M420.6,512H54.9C23.8,512,0,488.2,0,457.1V91.4c0-31.1,23.8-54.9,54.9-54.9H256v36.6H54.9c-11,0-18.3,7.3-18.3,18.3v365.7
		c0,11,7.3,18.3,18.3,18.3h365.7c11,0,18.3-7.3,18.3-18.3V256h36.6v201.1C475.4,488.2,451.7,512,420.6,512z"/>
</g>
</svg>
