<svg xmlns="http://www.w3.org/2000/svg" viewBox="0 0 118.53375 25.0829">
  <defs>
    <style>
      .a {
        fill: #c67b36;
      }

      .b {
        fill: #c67934;
      }

      .c {
        fill: #146356;
      }

      .d {
        fill: #9a2336;
      }

      .e {
        fill: #20685c;
      }

      .f {
        fill: #9a2c3a;
      }

      .g {
        fill: #7b6d64;
      }

      .h {
        fill: #1c7da2;
      }

      .i {
        fill: #c27b39;
      }

      .j {
        fill: #4d7d72;
      }

      .k {
        fill: #43786c;
      }

      .l {
        fill: #337266;
      }

      .m {
        fill: #942e3d;
      }

      .n {
        fill: #7f7066;
      }

      .o {
        fill: #2e685d;
      }

      .p {
        fill: #8a7f75;
      }

      .q {
        fill: #ab524d;
      }

      .r {
        fill: #9f383f;
      }

      .s {
        fill: #a64646;
      }

      .t {
        fill: #84786e;
      }

      .u {
        fill: #2484a6;
      }

      .v {
        fill: #c8833f;
      }

      .w {
        fill: #cd904e;
      }

      .x {
        fill: #90857b;
      }

      .y {
        fill: #d59e61;
      }

      .z {
        fill: #4690b0;
      }

      .aa {
        fill: #77685f;
      }

      .ab {
        fill: #58595b;
      }
    </style>
  </defs>
  <g>
    <path class="a" d="M559.98,513.57775c4.79212-.51059,5.76028-.15479,6.2014,2.27156C563.92266,515.67429,561.158,516.95029,559.98,513.57775Z" transform="translate(-450.84766 -496.03096)"/>
    <path class="b" d="M557.83713,510.24874c2.30737.42657,4.94638-.20186,6.19326,2.60838C560.2283,513.47979,558.86966,512.92976,557.83713,510.24874Z" transform="translate(-450.84766 -496.03096)"/>
    <path class="b" d="M567.47554,516.88043a10.31371,10.31371,0,0,1-1.4865-6.34858c1.40814,1.70257,2.76848,3.35486,2.99636,5.62506.0684.68146-.10347,1.33137-1.06069,1.18049l.02695.01663v-.31132l-.25429.0557.01745.01741c.09987-.26638.05652-.3907-.251-.253Z" transform="translate(-450.84766 -496.03096)"/>
    <path class="a" d="M567.92471,517.3374l1.44643,1.34723c.069.53332-.22131.65731-.52355.80136l-1.04578-1.24969a5.713,5.713,0,0,1-5.27548-1.76809c1.7654-.34679,3.406-.51544,4.94927.41221l-.01176-.01765.251.25305-.01746-.01742.2543.25563Z" transform="translate(-450.84766 -496.03096)"/>
    <path class="a" d="M565.42494,513.11241c-1.878-1.30469-2.86659-2.87588-2.47238-5.18861C565.11987,508.99275,565.68832,510.7645,565.42494,513.11241Z" transform="translate(-450.84766 -496.03096)"/>
    <path class="a" d="M560.49346,506.30955c2.01827.65765,2.1645,2.23135,1.92985,3.977C560.55132,509.76809,559.82533,508.28448,560.49346,506.30955Z" transform="translate(-450.84766 -496.03096)"/>
    <path class="b" d="M556.61067,507.66064a4.058,4.058,0,0,1,3.86378,1.91033C558.54052,510.14032,557.49277,509.61177,556.61067,507.66064Z" transform="translate(-450.84766 -496.03096)"/>
    <path class="a" d="M559.62653,507.7125c-1.49207-.41323-1.33906-1.54716-1.383-2.66292.72155.04264,1.06552.52428,1.52251.93744Z" transform="translate(-450.84766 -496.03096)"/>
    <path class="a" d="M557.88634,507.02213c-1.42852.12575-1.206-1.259-1.8485-1.86254l1.66506.48608Z" transform="translate(-450.84766 -496.03096)"/>
  </g>
  <path class="c" d="M553.46708,497.15218c.08109-.07381.19214-.13244.23848-.22386.336-.663.80818-1.081,1.59451-.81743a1.32763,1.32763,0,0,1,.89359,1.58669,6.28964,6.28964,0,0,0,.29157,2.55223,1.38335,1.38335,0,0,0,1.48432,1.0712c.50933-.01239,1.02129-.02835,1.52624-.09025a6.7031,6.7031,0,0,1,6.68783,3.28183c.47578.698,1.09529.41145,1.64282.57215.23356.06856.51691.04565.46109.34a.37694.37694,0,0,1-.63249.2419c-.84215-.65477-1.19866-.2755-1.514.56706a1.62757,1.62757,0,0,1-1.48245,1.017c-.74361.04418-1.12321.28139-.92249,1.07935.08519.33868-.087.56479-.39571.57083-.2538.005-.40858-.17616-.26035-.48358.22039-.4571.72151-1.00785.297-1.43157-.93358-.93179-1.54406-2.356-3.20774-2.31721a22.3665,22.3665,0,0,1-2.35114-.0959,4.22789,4.22789,0,0,1-4.05255-3.18932c-.0534-.17743-.0504-.39942-.29847-.45111Z" transform="translate(-450.84766 -496.03096)"/>
  <path class="d" d="M543.53482,511.14593c-.28788-.18623-.57961-.36682-.863-.55959a3.23493,3.23493,0,0,1,.382-5.682,2.47177,2.47177,0,0,0,1.65135-1.96159,15.91243,15.91243,0,0,1,.55833-1.545c-.78651-.49464-.81931.13765-.99756.58585a2.84921,2.84921,0,1,1-.18732-2.3471c.705,1.22193,1.41206,1.30944,2.35216.21759a11.82389,11.82389,0,0,1,5.03125-3.38272c.5276-.19332,1.045-.34375,1.26051.32815.21635.67462-.26191.88545-.8372.97768a12.76546,12.76546,0,0,0-2.69665.81317c-1.36478.54316-.711,1.48282-.61367,2.40426a4.69241,4.69241,0,0,1,2.2095-.02177,2.8522,2.8522,0,1,1-2.20442,5.24849,2.739,2.739,0,0,1-1.13613-4.00053,2.04549,2.04549,0,0,0,.13732-2.26807c-1.54161,1.13117-1.896,2.81287-2.41686,4.49762a3.80246,3.80246,0,0,1,2.53489,2.423c.53512,1.80741-.37032,3.34131-2.51076,4.27247Z" transform="translate(-450.84766 -496.03096)"/>
  <g>
    <path class="e" d="M551.22107,506.24768h1.4175c.10933.29437.38574.184.592.246a6.90955,6.90955,0,0,1,5.09187,4.93087q-1.651.48844-3.302.97682l-.28837-.03187.02524-.23536a1.22554,1.22554,0,0,0,.95341-.45167c.70943-.102.83732-.4958.51564-1.07776a5.03434,5.03434,0,0,0-3.39549-2.44971c-.49537-.122-.96382-.01086-.90119.6914l.00137,1.18189a2.65846,2.65846,0,0,0,.49307,3.03543,1.56348,1.56348,0,0,0-.02191.22593l-1.16951.36667-.01906-.07844q-.00275-.36131-.00519-.72244.00271-.2302.00482-.46077l.0058-2.83934Z" transform="translate(-450.84766 -496.03096)"/>
    <path class="f" d="M555.02044,512.40141q1.651-.48845,3.302-.97683c.3741.31623.0491.8992.45866,1.20185v2.59875a11.29888,11.29888,0,0,1-2.0686,3.54924c-.31025.28853-.65721.53758-.98732.8047a9.12178,9.12178,0,0,1-1.45213-1.97658,4.00584,4.00584,0,0,0,2.82051-1.26519c1.13347-1.45673.75378-3.01447-.91721-3.46719a1.49283,1.49283,0,0,0-.945.24294,5.19054,5.19054,0,0,1-1.88568.2252q.00251-.11625.00055-.23251Z" transform="translate(-450.84766 -496.03096)"/>
    <path class="g" d="M551.22107,506.24768q-.001,1.65381-.00205,3.30763-.117-.00021-.234-.00017l-.00723-.7042-.22815-.95006c.21775-.35471-.12459-.46219-.28983-.43533a3.53842,3.53842,0,0,0-2.78259,1.38058,2.42822,2.42822,0,0,1-.94538.94519c-.84635.29076-1.18224.79934-.706,1.65447l.00976.43949-1.667-.45955a6.96913,6.96913,0,0,1,5.07581-4.91969c.20873-.06365.48938.04142.59531-.25836Z" transform="translate(-450.84766 -496.03096)"/>
    <path class="h" d="M554.273,517.60245a9.12238,9.12238,0,0,0,1.45219,1.97667,6.99748,6.99748,0,0,1-8.76027-.01115,9.47243,9.47243,0,0,0,1.431-1.97123l-.0022.00037.34986-.46427q.07134-.1135.14246-.22722.10341-.13218.20728-.26393.10515-.03153.20945-.06576c-.0468.30422-.08219.61071-.14238.91225a1.83433,1.83433,0,0,0,1.55286,2.41456c1.79749.39889,2.86612-.73075,2.87225-3.03626Z" transform="translate(-450.84766 -496.03096)"/>
    <path class="i" d="M548.3959,517.59674a9.47243,9.47243,0,0,1-1.431,1.97123,6.94994,6.94994,0,0,1-2.59621-8.14212q.83355.22959,1.66688.4596.2126.03758.42548.0748a.5816.5816,0,0,0,.532.18807,1.3318,1.3318,0,0,0,.15655.01878,5.70271,5.70271,0,0,0,1.97788.68229.43489.43489,0,0,0,.15239.019,6.9192,6.9192,0,0,0,1.93373.70947l.01875.07772.00528.09437a2.00682,2.00682,0,0,1-.69034.81748c-.00941-.64392-.25521-1.056-.97942-.99886-.14736-.2318-.30558-.24386-.47531-.02352l-.44488-.00481c-.63917-.77278-1.52687-.6658-2.38231-.673-.96672-.07905-1.48449.31445-1.4194,1.33605C544.99375,516.52318,546.07856,517.56206,548.3959,517.59674Z" transform="translate(-450.84766 -496.03096)"/>
    <path class="j" d="M554.75724,512.13412q-.01263.11767-.02489.23559c-.56279.089-1.24015-.217-1.62959.47209q-.12654.11323-.25325.226l-.42522-.00452a2.65739,2.65739,0,0,1-.49332-3.035C553.71928,509.3191,554.69387,510.36059,554.75724,512.13412Z" transform="translate(-450.84766 -496.03096)"/>
    <path class="k" d="M554.75724,512.13412c-.06337-1.77353-1.038-2.815-2.82627-2.10585l-.00136-1.18189c2.20837.0078,3.45256.941,3.781,2.83607A1.22554,1.22554,0,0,1,554.75724,512.13412Z" transform="translate(-450.84766 -496.03096)"/>
    <path class="l" d="M555.71065,511.68245c-.32848-1.895-1.57267-2.82827-3.781-2.83607-.06263-.70226.40582-.8134.90119-.6914a5.03434,5.03434,0,0,1,3.39549,2.44971C556.548,511.18665,556.42008,511.58043,555.71065,511.68245Z" transform="translate(-450.84766 -496.03096)"/>
    <path class="m" d="M551.23781,513.74966l-.00549-.09408q.58523-.18225,1.1698-.36584.23862.01065.47719.02131l-.00593.25944a.697.697,0,0,0-.46282.7152q-.00825.36123-.01654.72236Q551.81588,514.37874,551.23781,513.74966Z" transform="translate(-450.84766 -496.03096)"/>
    <path class="n" d="M551.21357,513.57786a6.90952,6.90952,0,0,1-1.9332-.70948l1.22789-.01591.69983.00277Z" transform="translate(-450.84766 -496.03096)"/>
    <path class="o" d="M553.10268,512.84158c.38952-.68883,1.06688-.38287,1.62967-.47187q.14362.01555.288.03164-.837.35228-1.67413.70434l-.23791-.00981-.02056-.02106A1.06276,1.06276,0,0,0,553.10268,512.84158Z" transform="translate(-450.84766 -496.03096)"/>
    <path class="n" d="M550.98507,509.55514q.117,0,.234.00017-.00293,1.41967-.00564,2.83923l-.24088-.00338q-.00144-1.17852-.00317-2.357Z" transform="translate(-450.84766 -496.03096)"/>
    <path class="p" d="M550.97235,512.39118l.241.00336q-.00254.23064-.005.46088-.35036-.00165-.70008-.00283A.42965.42965,0,0,1,550.97235,512.39118Z" transform="translate(-450.84766 -496.03096)"/>
    <path class="o" d="M552.8794,513.31081q-.23865-.01049-.47728-.02107a1.56633,1.56633,0,0,1,.02193-.226q.213.00163.42569.00433.11924.00363.238.00679l.0206.0211a.51477.51477,0,0,0-.01529.22425l.00119-.00616A.45207.45207,0,0,0,552.8794,513.31081Z" transform="translate(-450.84766 -496.03096)"/>
    <path class="q" d="M552.39406,515.00816q.00825-.36123.0164-.72253a.67808.67808,0,0,0,.70419-.70893l-.02048-.26283-.001.0064.25246.018a5.18723,5.18723,0,0,0,1.88574-.22538c.00631.65765.97751.94.6535,1.74085a1.917,1.917,0,0,1-2.06548,1.31682c-.39871-.31794-.52763-.99351-1.22087-.921l.0314-.0071-.23837-.24754Z" transform="translate(-450.84766 -496.03096)"/>
    <path class="r" d="M552.59855,515.24957c.69324-.07249.82216.60308,1.22088.921a1.41168,1.41168,0,0,0,2.35611.11274c.98423-1.046.98445-2.01024.00078-3.41316,1.671.45272,2.05068,2.01046.91721,3.46719a4.00584,4.00584,0,0,1-2.82051,1.26519l-.68752-.736Z" transform="translate(-450.84766 -496.03096)"/>
    <path class="s" d="M556.17632,512.87016c.98367,1.40292.98345,2.36715-.00078,3.41316a1.41168,1.41168,0,0,1-2.35611-.11274,1.91693,1.91693,0,0,0,2.06547-1.31681c.324-.80085-.64719-1.0832-.6535-1.74085A1.49356,1.49356,0,0,1,556.17632,512.87016Z" transform="translate(-450.84766 -496.03096)"/>
    <path class="r" d="M553.34566,513.3383l-.25246-.018a.51327.51327,0,0,1,.01517-.22435l.23787.00977Q553.34815,513.22211,553.34566,513.3383Z" transform="translate(-450.84766 -496.03096)"/>
    <path class="p" d="M550.98507,509.55514q-.00787.23951-.01555.47895c-2.0222-.32088-2.94016.43253-2.58412,2.121l-1.23637.012a1.36052,1.36052,0,0,1-.15631-.01881q-.01335-.23229-.02608-.46461c.30727-1.77832,1.81833-2.84545,4.0112-2.83278Z" transform="translate(-450.84766 -496.03096)"/>
    <path class="t" d="M550.97784,508.85094c-2.19287-.01267-3.70393,1.05446-4.01118,2.83275a.51631.51631,0,0,0-.50563.27656q-.21282-.0373-.42548-.0748-.00467-.22-.00965-.43967.353-.82723.706-1.65446a2.42822,2.42822,0,0,0,.94538-.94519c1.04843-.23612,1.91922-1.04966,3.07242-.94525Z" transform="translate(-450.84766 -496.03096)"/>
    <path class="n" d="M550.74969,507.90088c-1.1532-.10441-2.024.70913-3.07242.94525a3.53842,3.53842,0,0,1,2.78259-1.38058C550.6251,507.43869,550.96744,507.54617,550.74969,507.90088Z" transform="translate(-450.84766 -496.03096)"/>
    <path class="n" d="M546.73189,509.79132q-.353.82722-.706,1.65446C545.54965,510.59066,545.88554,510.08208,546.73189,509.79132Z" transform="translate(-450.84766 -496.03096)"/>
    <path class="u" d="M552.59855,515.24957l.98695,1.617c-.00615,2.30547-1.07478,3.43511-2.87227,3.03622a1.83433,1.83433,0,0,1-1.55286-2.41456c.06019-.30154.09558-.608.14242-.91214q.0425-.31959.0847-.6393l.18924-.18875a1.68386,1.68386,0,0,0,.95916-1.20894l.0112.0285a2.007,2.007,0,0,0,.69051-.8176q.5784.62871,1.15642,1.2581l-.00245-.01308c.01871.14105.08051.24054.23838.2475Zm.04007,1.80765c.014-.84294-.736-2.03317-1.28769-2.04352-.566-.01061-1.5499,1.4029-1.47756,2.33963a1.33457,1.33457,0,0,0,1.27066,1.41357C552.04673,518.816,552.62031,518.1565,552.63862,517.05722Z" transform="translate(-450.84766 -496.03096)"/>
    <path class="v" d="M548.3959,517.59674c-2.31734-.03468-3.40215-1.07356-3.55-3.39344-.06509-1.0216.45268-1.4151,1.41933-1.33611-.09731.57712-.90165.77657-.6468,1.621.44238,1.46572.92532,2.70549,3.228,2.37379l.03982.04387q-.07134.11349-.143.22716c-.26664.04194-.34484.22537-.34958.46411Z" transform="translate(-450.84766 -496.03096)"/>
    <path class="v" d="M549.38768,515.93663q-.04242.31975-.08489.63941-.10435.03406-.20949.06565l-.01625-.01107.02266-.69082Z" transform="translate(-450.84766 -496.03096)"/>
    <path class="i" d="M548.3937,517.59711c.00474-.23874.08294-.42217.34958-.46411Q548.56877,517.36488,548.3937,517.59711Z" transform="translate(-450.84766 -496.03096)"/>
    <path class="v" d="M549.0933,516.64169q-.10375.13185-.20728.26393l-.03958-.04359.23061-.23141Z" transform="translate(-450.84766 -496.03096)"/>
    <path class="w" d="M549.07705,516.63062l-.23061.23141c-2.30265.33164-2.78559-.90813-3.228-2.37385-.25485-.84442.54949-1.04387.6468-1.621.85551.00725,1.74321-.09973,2.38214.6734-.46434.17271-1.16345-.29372-1.40318.43121a1.22177,1.22177,0,0,0,.40914,1.35544,2.05149,2.05149,0,0,0,1.44634.61256Z" transform="translate(-450.84766 -496.03096)"/>
    <path class="x" d="M548.3854,512.1551c-.356-1.68848.56192-2.44189,2.58412-2.121q.00138,1.17859.003,2.35707a.42972.42972,0,0,0-.4642.46143q-.61374.00777-1.22793.01579a.44053.44053,0,0,1-.15331-.01894C549.12416,512.35692,548.5677,512.45572,548.3854,512.1551Z" transform="translate(-450.84766 -496.03096)"/>
    <path class="y" d="M549.09971,515.9398a2.05149,2.05149,0,0,1-1.44634-.61256,1.22177,1.22177,0,0,1-.40914-1.35544c.23973-.72493.93884-.2585,1.40318-.43121q.22281.00188.44513.00472c.14643.25614.30434.27463.4753.02326.72421-.05715.97.35494.97942.99886l-.01142-.02841c-.776.041-.85442.63542-.95911,1.209l-.18924.18875Q549.24379,515.93817,549.09971,515.9398Z" transform="translate(-450.84766 -496.03096)"/>
    <path class="n" d="M548.3854,512.1551c.1823.30062.73876.20182.74166.69434a5.7046,5.7046,0,0,1-1.97749-.68234Q547.76694,512.16115,548.3854,512.1551Z" transform="translate(-450.84766 -496.03096)"/>
    <path class="g" d="M546.461,511.96025a.51631.51631,0,0,1,.50563-.27656q.01285.23236.02606.46464A.58135.58135,0,0,1,546.461,511.96025Z" transform="translate(-450.84766 -496.03096)"/>
    <path class="w" d="M549.56784,513.56857c-.171.25137-.32887.23288-.4753-.02326C549.26226,513.32471,549.42048,513.33677,549.56784,513.56857Z" transform="translate(-450.84766 -496.03096)"/>
    <path class="e" d="M553.08777,513.07482q-.1189-.00329-.238-.00679.12633-.11322.253-.22623A1.06661,1.06661,0,0,1,553.08777,513.07482Z" transform="translate(-450.84766 -496.03096)"/>
    <path class="s" d="M553.11465,513.5767a.67808.67808,0,0,1-.70419.70893.69709.69709,0,0,1,.46294-.71513Z" transform="translate(-450.84766 -496.03096)"/>
    <path class="r" d="M553.11465,513.5767l-.24125-.0062.00591-.25945a.44938.44938,0,0,1,.215.003Z" transform="translate(-450.84766 -496.03096)"/>
    <path class="r" d="M552.63,515.24247c-.15787-.007-.21967-.10645-.23838-.2475Z" transform="translate(-450.84766 -496.03096)"/>
    <path class="z" d="M552.63862,517.05722c-.01831,1.09928-.59189,1.75882-1.49459,1.70968a1.33457,1.33457,0,0,1-1.27066-1.41357c-.07234-.93673.91154-2.35024,1.47756-2.33963C551.90266,515.02405,552.65267,516.21428,552.63862,517.05722Z" transform="translate(-450.84766 -496.03096)"/>
    <path class="w" d="M549.57673,515.748c.10469-.57355.1831-1.16794.95911-1.209A1.68367,1.68367,0,0,1,549.57673,515.748Z" transform="translate(-450.84766 -496.03096)"/>
  </g>
  <path class="aa" d="M530.09675,515.09034a5.5182,5.5182,0,0,1-2.29926,1.09767c-.66482.22063-1.61045.40469-.788,1.47378a.2775.2775,0,0,1-.06135.41416.50586.50586,0,0,1-.43008.00559,1.01254,1.01254,0,0,1-.40808-1.58421,3.22894,3.22894,0,0,1,2.09127-1.19235c.45032-.13746,1.20743-.12623,1.09279-.80794-.09866-.58671-.77956-.34492-1.22182-.37756a1.44535,1.44535,0,0,0-1.45574.73275,3.437,3.437,0,0,1-3.231,1.577c-1.06034-.06258-2.12384-.07887-3.18239-.16133-.46423-.03617-1.328.35957-.99628-.79279.06239-.21671-.37713-.34232-.642-.40371-.84077-.19488-1.68014-.39926-2.52738-.56175-.83893-.16089-1.03944-.49224-.39321-1.14809a13.40437,13.40437,0,0,0,2.4281-2.54355c.20943-.36448.81461-.49177.96755-.03709.4929,1.4653,1.24538.56393,1.83251.22233a4.335,4.335,0,0,1,4.3835-.14642,2.92777,2.92777,0,0,1,1.72784,1.97691c.12748.61817.44444.61439.91375.57606a2.17091,2.17091,0,0,1,2.1993.73552Z" transform="translate(-450.84766 -496.03096)"/>
  <g>
    <path class="ab" d="M452.188,503.42676c.05371.02636.11328.05322.18017.07959a2.68283,2.68283,0,0,0,.28028.14013,1.31643,1.31643,0,0,0,.52.08008,6.76563,6.76563,0,0,0,.85009-.06006q.47022-.06006.97022-.14013l.92041-.11963a6.66364,6.66364,0,0,1,.85986-.06006,2.57279,2.57279,0,0,1,.54.06006,1.30932,1.30932,0,0,1,.50049.21972,1.25634,1.25634,0,0,1,.36963.4502,1.62962,1.62962,0,0,1,.15039.75.7665.7665,0,0,1-.15039.49023,1.12874,1.12874,0,0,1-.38965.31006,1.73048,1.73048,0,0,1-.56055.16016,5.45345,5.45345,0,0,1-.68017.04c-.21289,0-.43994-.00684-.67969-.02q-.36034-.01977-.70019-.06006-.7002-.06006-1.3003-.06006a4.37271,4.37271,0,0,0-.54.03028.577.577,0,0,0-.34033.12988c-.04.02637-.07324.16015-.1001.3999q-.03954.36034-.06982.83008-.03.47021-.05029.96045-.01979.49-.02.81006a.37137.37137,0,0,0,.25049.39013,2.18481,2.18481,0,0,0,.71.08985c.16015,0,.33984-.00635.54-.02q.30029-.01979.62011-.05957.3003-.04029.61035-.06006.30982-.0205.62989-.02a2.7681,2.7681,0,0,1,1.33056.27,1.069,1.069,0,0,1,.48975,1.03027.8795.8795,0,0,1-.1499.54.97335.97335,0,0,1-.41016.31006,2.20794,2.20794,0,0,1-.6001.1499,6.12745,6.12745,0,0,1-.72021.04q-.26,0-.52979-.00976-.27026-.01026-.51025-.03028c-.147-.01318-.2832-.02-.41016-.02h-.57031a1.1889,1.1889,0,0,1-.23.02h-.25a2.63549,2.63549,0,0,0-.54.05029q-.24024.04981-.24023.38965a5.302,5.302,0,0,0,.09033.88037q.09009.52.21,1.1001.10033.60058.21,1.17041a5.76479,5.76479,0,0,1,.10986,1.09033,2.01366,2.01366,0,0,1-.21.98.78174.78174,0,0,1-.75.38038.76855.76855,0,0,1-.64013-.36036,3.27416,3.27416,0,0,1-.44-.91992,7.72868,7.72868,0,0,1-.28027-1.25049q-.10034-.68994-.1499-1.36035-.0498-.67016-.06006-1.24023-.01026-.56982-.01025-.89014,0-.52.03027-1.26025.03-.74048.06982-1.38037.02052-.38013.04-.66016c.01367-.18652.02-.32666.02-.41992s-.00342-.20362-.00976-.33008c-.00684-.127-.0166-.26367-.03028-.41016q-.01977-.30028-.04-.64013-.01977-.33985-.02-.68018a8.02986,8.02986,0,0,1,.04-.81006,3.17578,3.17578,0,0,1,.15039-.71045,1.51592,1.51592,0,0,1,.29981-.52978.86988.86988,0,0,1,.49023-.27h.12012A.39355.39355,0,0,1,452.188,503.42676Z" transform="translate(-450.84766 -496.03096)"/>
    <path class="ab" d="M463.73877,503.69678q.13036-.01026.29-.01026a3.41429,3.41429,0,0,1,1.86035.48047,3.73708,3.73708,0,0,1,1.23047,1.27,5.79462,5.79462,0,0,1,.68017,1.83057,10.88107,10.88107,0,0,1,.21,2.16015,13.87085,13.87085,0,0,1-.29,2.82081,10.6108,10.6108,0,0,1-.79,2.44042,3.57393,3.57393,0,0,1-.53028.7002,8.22338,8.22338,0,0,1-.82031.77,10.197,10.197,0,0,1-.91015.67041,3.541,3.541,0,0,1-.76026.3999,3.48187,3.48187,0,0,1-.68017.06006,3.17593,3.17593,0,0,1-1.96045-.6001,4.57361,4.57361,0,0,1-1.31006-1.58056,7.90332,7.90332,0,0,1-.74024-2.2002,13.257,13.257,0,0,1-.23-2.46045,12.47359,12.47359,0,0,1,.18018-2.00049,7.18326,7.18326,0,0,1,.68017-2.09033,5.57722,5.57722,0,0,1,1.36036-1.73047,4.05943,4.05943,0,0,1,2.24023-.90039C463.55566,503.71338,463.65234,503.70312,463.73877,503.69678Zm-2.08057,3.13037a5.86354,5.86354,0,0,0-.42968,1.1206,9.12088,9.12088,0,0,0-.27,1.41016,13.32977,13.32977,0,0,0-.09034,1.55029,10.83862,10.83862,0,0,0,.13038,1.74024,5.02473,5.02473,0,0,0,.40966,1.38037,2.34659,2.34659,0,0,0,.72022.90039,1.75423,1.75423,0,0,0,1.06054.31982,1.86072,1.86072,0,0,0,1.3501-.56006,4.40584,4.40584,0,0,0,.94043-1.42041,8.83985,8.83985,0,0,0,.56006-1.89013,10.79094,10.79094,0,0,0,.18994-1.95069,4.86553,4.86553,0,0,0-.59033-2.61035,2.05132,2.05132,0,0,0-1.87012-.93017,8.1256,8.1256,0,0,0-.82031.0498,1.86055,1.86055,0,0,0-.72021.18994A1.8867,1.8867,0,0,0,461.6582,506.82715Z" transform="translate(-450.84766 -496.03096)"/>
    <path class="ab" d="M474.39844,503.69678q.13036-.01026.29-.01026a3.41429,3.41429,0,0,1,1.86035.48047,3.73718,3.73718,0,0,1,1.23047,1.27,5.79486,5.79486,0,0,1,.68017,1.83057,10.88107,10.88107,0,0,1,.21,2.16015,13.87085,13.87085,0,0,1-.29,2.82081,10.61081,10.61081,0,0,1-.79,2.44042,3.57433,3.57433,0,0,1-.53028.7002,8.22338,8.22338,0,0,1-.82031.77,10.19859,10.19859,0,0,1-.91016.67041,3.541,3.541,0,0,1-.76025.3999,3.4819,3.4819,0,0,1-.68018.06006,3.176,3.176,0,0,1-1.96045-.6001,4.5737,4.5737,0,0,1-1.31-1.58056,7.903,7.903,0,0,1-.74024-2.2002,13.257,13.257,0,0,1-.23-2.46045,12.47359,12.47359,0,0,1,.18018-2.00049,7.16863,7.16863,0,0,1,.68017-2.09033,5.57719,5.57719,0,0,1,1.36035-1.73047,4.0595,4.0595,0,0,1,2.24024-.90039C474.21533,503.71338,474.312,503.70312,474.39844,503.69678Zm-2.08008,3.13037a5.83134,5.83134,0,0,0-.43018,1.1206,9.06554,9.06554,0,0,0-.27,1.41016,13.332,13.332,0,0,0-.09033,1.55029,10.83982,10.83982,0,0,0,.13037,1.74024,5.02506,5.02506,0,0,0,.40967,1.38037,2.34659,2.34659,0,0,0,.72022.90039,1.75421,1.75421,0,0,0,1.06054.31982,1.86072,1.86072,0,0,0,1.3501-.56006,4.406,4.406,0,0,0,.94043-1.42041,8.83985,8.83985,0,0,0,.56006-1.89013,10.79185,10.79185,0,0,0,.18994-1.95069,4.86553,4.86553,0,0,0-.59033-2.61035,2.05185,2.05185,0,0,0-1.87012-.93017,8.1256,8.1256,0,0,0-.82031.0498,1.86066,1.86066,0,0,0-.72022.18994A1.88115,1.88115,0,0,0,472.31836,506.82715Z" transform="translate(-450.84766 -496.03096)"/>
    <path class="ab" d="M482.34766,504.07666c.09326.04688.18652.08984.27978.12988a.49307.49307,0,0,0,.12012.06006.51028.51028,0,0,0,.16015.02c.08008,0,.16651-.00342.26026-.00976.09326-.00684.19336-.01661.2998-.03028.05323,0,.1167-.00342.18994-.00976a1.92222,1.92222,0,0,0,.21-.03028,1.47713,1.47713,0,0,1,.24023-.02h.12012a.44822.44822,0,0,1,.08984.01026.4933.4933,0,0,0,.09033.00976,5.7183,5.7183,0,0,1,2.26026.72022,4.74953,4.74953,0,0,1,1.54052,1.46045,6.35963,6.35963,0,0,1,.87989,2.08056,11.05887,11.05887,0,0,1,.28027,2.56055,7.52634,7.52634,0,0,1-.68018,3.27051,5.68711,5.68711,0,0,1-1.88037,2.27051,8.32135,8.32135,0,0,1-.76025.41992,10.833,10.833,0,0,1-1.04.45019,11.71189,11.71189,0,0,1-1.13037.36035,4.10515,4.10515,0,0,1-1.03027.14991,1.55293,1.55293,0,0,1-1.17041-.33008,1.42975,1.42975,0,0,1-.29-.97022,1.78858,1.78858,0,0,1,.01025-.18017c.00635-.06641.00977-.1333.00977-.2002a.98967.98967,0,0,0,.02-.1997v-.2002q0-.65991-.06006-1.52051-.06006-.85986-.13965-1.56006-.06006-.52-.1001-.99023-.04027-.47022-.04-.75,0-.44019.02979-.91016.03-.47021.07031-.93017.03955-.44019.06982-.89063.03-.4497.02979-.85009a5.03087,5.03087,0,0,0-.13965-1.22022q-.04028-.13989-.1001-.2998a4.44807,4.44807,0,0,1-.22021-.47022,1.42017,1.42017,0,0,1-.1001-.53027.861.861,0,0,1,.26025-.6499,1.5217,1.5217,0,0,1,.96-.29h.02A.85753.85753,0,0,1,482.34766,504.07666Zm5.14111,7.55176a6.42123,6.42123,0,0,0,.04-.7002,6.73666,6.73666,0,0,0-.24024-1.82031,4.84943,4.84943,0,0,0-.70019-1.51074,3.39954,3.39954,0,0,0-1.15039-1.02979,3.24223,3.24223,0,0,0-1.59033-.38037c-.1333,0-.27637.00684-.43018.02q-.23.01977-.44971.06006v1.66016q0,1.98047.04981,4.041a28.83319,28.83319,0,0,0,.33008,3.8208,6.42705,6.42705,0,0,0,1.42041-.3999,4.81723,4.81723,0,0,0,1.21045-.71045,4.11233,4.11233,0,0,0,.89013-1,3.72393,3.72393,0,0,0,.5-1.29Q487.4485,511.988,487.48877,511.62842Z" transform="translate(-450.84766 -496.03096)"/>
    <path class="ab" d="M502.49805,503.4165c.167-.00683.34375-.00976.53027-.00976q.38087,0,.75.02978a1.96753,1.96753,0,0,1,.64063.14991,1.08492,1.08492,0,0,1,.43945.35009,1.00381,1.00381,0,0,1,.16992.61036,1.72047,1.72047,0,0,1-.2793.93994.93023.93023,0,0,1-.84082.44043.94529.94529,0,0,1-.50976-.11036,1.90757,1.90757,0,0,1-.31055-.25,1.7257,1.7257,0,0,0-.16992-.1499.43165.43165,0,0,0-.26953-.06982,1.97307,1.97307,0,0,0-.66016.11963,3.849,3.849,0,0,0-.65039.30029,4.51785,4.51785,0,0,0-.57031.39014,5.72311,5.72311,0,0,0-.43946.39013,2.58968,2.58968,0,0,0-.51074.81006,9.22633,9.22633,0,0,0-.41015,1.17041,10.54565,10.54565,0,0,0-.27979,1.32031,8.62136,8.62136,0,0,0-.1001,1.24024,6.0071,6.0071,0,0,0,.28028,1.68017,4.36174,4.36174,0,0,0,.7705,1.4502,3.86815,3.86815,0,0,0,1.28028,1.02051,3.91339,3.91339,0,0,0,1.79.39013q.20069,0,.46-.02a4.75492,4.75492,0,0,0,.52051-.07032,2.7839,2.7839,0,0,0,.49023-.14013,1.06908,1.06908,0,0,0,.37012-.23l.08008-.16016c.0664-.11963.14257-.25.22949-.38965a4.231,4.231,0,0,1,.29-.41016,1.4466,1.4466,0,0,1,.37011-.33007.87236.87236,0,0,1,.46973-.13037.55315.55315,0,0,1,.31055.12011,1.47309,1.47309,0,0,1,.32031.32031,1.99267,1.99267,0,0,1,.25.4502,1.36491,1.36491,0,0,1,.09961.50977,1.1058,1.1058,0,0,1-.24023.53027,6.49565,6.49565,0,0,1-.58985.73,6.30068,6.30068,0,0,1-.75976.7002,2.43553,2.43553,0,0,1-.73047.42041,4.391,4.391,0,0,1-.85059.16992,9.41031,9.41031,0,0,1-.99023.0498,8.81425,8.81425,0,0,1-1.03028-.06006,6.57229,6.57229,0,0,1-.88965-.15966,4.50327,4.50327,0,0,1-1.81054-.9502,5.84771,5.84771,0,0,1-1.28028-1.59033,7.63606,7.63606,0,0,1-.76025-2.03076,10.22319,10.22319,0,0,1-.25-2.25049,10.48109,10.48109,0,0,1,.31006-2.53028,7.97148,7.97148,0,0,1,.92041-2.25048,5.73668,5.73668,0,0,1,1.52978-1.67041,4.404,4.404,0,0,1,2.1211-.81006C502.20117,503.43311,502.332,503.42334,502.49805,503.4165Z" transform="translate(-450.84766 -496.03096)"/>
    <path class="ab" d="M513.31836,503.69678q.12891-.01026.29-.01026a3.41429,3.41429,0,0,1,1.86035.48047,3.73422,3.73422,0,0,1,1.22949,1.27,5.80718,5.80718,0,0,1,.68067,1.83057,10.91845,10.91845,0,0,1,.21,2.16015,13.87085,13.87085,0,0,1-.29,2.82081,10.6108,10.6108,0,0,1-.79,2.44042,3.53533,3.53533,0,0,1-.53027.7002,8.33109,8.33109,0,0,1-.82032.77,10.197,10.197,0,0,1-.91015.67041,3.56213,3.56213,0,0,1-.75977.3999,3.487,3.487,0,0,1-.68066.06006,3.17347,3.17347,0,0,1-1.96-.6001,4.56418,4.56418,0,0,1-1.31055-1.58056,7.91922,7.91922,0,0,1-.74023-2.2002,13.25669,13.25669,0,0,1-.23047-2.46045,12.47806,12.47806,0,0,1,.18066-2.00049,7.19671,7.19671,0,0,1,.67969-2.09033,5.59876,5.59876,0,0,1,1.36035-1.73047,4.06113,4.06113,0,0,1,2.24121-.90039C513.13477,503.71338,513.23145,503.70312,513.31836,503.69678Zm-2.08106,3.13037a5.92932,5.92932,0,0,0-.42968,1.1206,9.17865,9.17865,0,0,0-.27051,1.41016,13.43825,13.43825,0,0,0-.08984,1.55029,10.841,10.841,0,0,0,.12988,1.74024,5.04135,5.04135,0,0,0,.41015,1.38037,2.33867,2.33867,0,0,0,.72071.90039,1.75125,1.75125,0,0,0,1.05957.31982,1.861,1.861,0,0,0,1.35058-.56006,4.40584,4.40584,0,0,0,.94043-1.42041,8.81111,8.81111,0,0,0,.55957-1.89013,10.7494,10.7494,0,0,0,.19043-1.95069,4.8747,4.8747,0,0,0-.58984-2.61035,2.0535,2.0535,0,0,0-1.87109-.93017,8.14206,8.14206,0,0,0-.82032.0498,1.86287,1.86287,0,0,0-.71972.18994A1.882,1.882,0,0,0,511.2373,506.82715Z" transform="translate(-450.84766 -496.03096)"/>
    <path class="ab" d="M522.50684,503.62646c.14648-.01318.31347-.02.5-.02a4.49878,4.49878,0,0,1,.78027.07031,2.68631,2.68631,0,0,1,.71.21972,1.45281,1.45281,0,0,1,.51074.4004.94789.94789,0,0,1,.19922.60986.79687.79687,0,0,1-.14941.46045.7836.7836,0,0,1-.35059.23974,1.847,1.847,0,0,1-.50976.1001q-.29.02051-.61036.02-.37939.01977-.79.06006a2.22109,2.22109,0,0,0-.75977.21,1.35645,1.35645,0,0,0-.57031.53027,1.87482,1.87482,0,0,0-.22071.98.77263.77263,0,0,0,.90039.82032c.22657,0,.4375-.00684.63086-.02s.38282-.02686.56934-.04c.14746-.01319.30078-.02344.46-.02979.16016-.00683.30762-.01025.44043-.01025a3.66615,3.66615,0,0,1,.9502.12012,2.93631,2.93631,0,0,1,.89062.41992,5.41062,5.41062,0,0,1,.66016.65039,6.557,6.557,0,0,1,.66992.91992,5.9169,5.9169,0,0,1,.51953,1.10059,3.51162,3.51162,0,0,1,.21094,1.18994,3.86016,3.86016,0,0,1-.24024,1.14062,8.52738,8.52738,0,0,1-.64062,1.43994,8.06251,8.06251,0,0,1-.90039,1.31055,2.46621,2.46621,0,0,1-1,.77,3.66222,3.66222,0,0,1-.72949.1499,8.01375,8.01375,0,0,1-.93067.0503,10.509,10.509,0,0,1-1.60058-.12012,7.4223,7.4223,0,0,1-1.38965-.34033,2.86077,2.86077,0,0,1-.98047-.56006,1.05174,1.05174,0,0,1-.37012-.79981,1.33627,1.33627,0,0,1,.21973-.74023.81433.81433,0,0,1,.74023-.34033,1.11373,1.11373,0,0,1,.60059.15039,4.434,4.434,0,0,1,.43945.31006v-.02c.10742.08008.207.15332.30078.21972a.53181.53181,0,0,0,.31934.1001,1.10739,1.10739,0,0,0,.12012-.00976c.05371-.00684.11328-.01661.18066-.03028.08008-.01318.16309-.02637.25-.04a3.00137,3.00137,0,0,1,.41016-.02h.41992q.12012,0,.24023.01026c.08008.00634.15918.00976.23926.00976a5.55182,5.55182,0,0,0,.76074-.0498,1.142,1.142,0,0,0,.58008-.23,2.11245,2.11245,0,0,0,.62988-.92041,3.62082,3.62082,0,0,0,.08985-2.27051,2.4976,2.4976,0,0,0-.43946-.87012,2.17276,2.17276,0,0,0-.78027-.61035,2.61776,2.61776,0,0,0-1.14062-.23,7.90186,7.90186,0,0,0-.98047.06006c-.15918.01367-.31934.02344-.4795.03027q-.24023.00952-.46.00977a3.19264,3.19264,0,0,1-.88086-.12012,1.85806,1.85806,0,0,1-1.26953-1.20019,3.64536,3.64536,0,0,1-.19043-1.28028,3.86,3.86,0,0,1,.25-1.38037,4.59985,4.59985,0,0,1,.65039-1.18017,4.29746,4.29746,0,0,1,.90039-.87989,2.57676,2.57676,0,0,1,1.01954-.46045h.0205A2.61543,2.61543,0,0,1,522.50684,503.62646Z" transform="translate(-450.84766 -496.03096)"/>
    <path class="ab" d="M534.47754,503.68652q.47022.02052.99023.0503c.34668.02.70411.04638,1.07032.08007.36718.03321.71679.06983,1.05078.10987a1.129,1.129,0,0,1,.76953.29.843.843,0,0,1,.23047.59033,1.00942,1.00942,0,0,1-.12989.48,1.67684,1.67684,0,0,1-.35058.43994,2.01935,2.01935,0,0,1-.49024.33008,1.29274,1.29274,0,0,1-.56933.12988,2.51437,2.51437,0,0,1-.541-.07959q-.33984-.08056-.71972-.18017-.33986-.10035-.67969-.18018a2.67417,2.67417,0,0,0-.60059-.08008.48863.48863,0,0,0-.20019.02h.0205c-.02734.01367-.05371.13037-.08007.3501-.02735.22021-.05664.49023-.08985.81006-.03418.32031-.06347.667-.09082,1.04053q-.03954.56029-.05957,1.04l-.04.56006c-.01367.187-.02636.3335-.04.44043a.98906.98906,0,0,0-.01953.19971v.20019a8.38375,8.38375,0,0,0,.0791,1.11036q.08058.58959.16016,1.05029c.02734.19971.05371.3667.08008.5a2.0881,2.0881,0,0,1,.04.41992c0,.10693-.00293.22363-.00977.3501s-.0166.25-.03027.37012c-.0127.12011-.02637.23339-.04.33984a2.71027,2.71027,0,0,0-.01953.32031,1.2943,1.2943,0,0,0,.01953.23975,1.53017,1.53017,0,0,1,.06055.16015l.08007.24024h-.0205q.0996.21972.18066.45019a1.37782,1.37782,0,0,1,.0791.44971.7305.7305,0,0,1-.14941.30029c-.10059.14649-.2168.3003-.35059.46a3.4313,3.4313,0,0,1-.41015.42041.60008.60008,0,0,1-.34961.17968.63.63,0,0,1-.48047-.18994,1.28424,1.28424,0,0,1-.2793-.5,3.34944,3.34944,0,0,1-.14062-.70019,7.82971,7.82971,0,0,1-.04-.79c0-.2002.0039-.40039.00976-.6001.00684-.2002.01758-.38672.03028-.56006a3.502,3.502,0,0,0,.0205-.3501V513.689q0-.52074-.04-1.21044-.041-.69-.08008-1.47022-.041-.88037-.08008-1.79053-.03955-.91039-.04-1.69043a1.27227,1.27227,0,0,1,.04-.27c.02637-.11328.05273-.23681.08008-.37011.02636-.1333.05664-.27.08984-.41016a1.85341,1.85341,0,0,0,.04981-.42969.27576.27576,0,0,0-.08985-.23047,1.206,1.206,0,0,0-.5498-.06982h-.41016c-.14062,0-.29.00684-.45019.02-.18653.01318-.37012.02344-.54981.02979q-.271.01025-.55078.01025c-.30664,0-.59277-.01318-.86035-.04a3.20119,3.20119,0,0,1-.71973-.1499,1.16329,1.16329,0,0,1-.5-.31006.77708.77708,0,0,1-.18066-.54.72359.72359,0,0,1,.30078-.62012,2.1363,2.1363,0,0,1,.83984-.33008,8.06427,8.06427,0,0,1,1.27051-.14013q.72949-.03,1.61035-.03028.46,0,.84961.01026c.26074.00635.49024.00976.69043.00976h.54C533.90137,503.6665,534.16406,503.67334,534.47754,503.68652Z" transform="translate(-450.84766 -496.03096)"/>
  </g>
</svg>
