<svg xmlns="http://www.w3.org/2000/svg" viewBox="-600 -600 1500 1500">
  <defs>
    <style>
      .a {
        fill: #b42936;
      }

      .b {
        fill: #fff;
      }
    </style>
  </defs>
  <circle class="a" cx="299.70999" cy="299.70999" r="299.70999"/>
  <path class="b" d="M913.47461,732.79736A41.63928,41.63928,0,0,1,923.792,745.46045a72.07259,72.07259,0,0,1,6.56641,17.11865q2.34375,9.3794,4.68945,18.29,2.34375,9.38087,4.2207,15.00781,10.78712,36.1128,20.166,71.28711,6.5669,24.85694,14.07031,49.00977,7.50439,24.15234,15.47657,46.665,2.34521,7.50439,5.8623,15.94531,3.5171,8.4419,7.26953,16.88379,5.62793,13.60107,10.083,24.85644,4.45605,11.25586,4.45605,16.415,0,13.60109-8.91113,21.1045-8.91065,7.5044-17.82226,7.5039-8.44189,0-13.835-4.92383a42.90526,42.90526,0,0,1-9.38086-13.13183,93.05042,93.05042,0,0,1-6.5664-18.99414q-2.57959-10.78711-5.39356-22.51172-2.34375-10.31836-4.92382-20.63672a193.87246,193.87246,0,0,0-5.62793-18.75977,64.15158,64.15158,0,0,0-7.03516-14.30371q-3.9873-5.8623-8.67676-7.26953a138.62061,138.62061,0,0,0-23.21484-3.51758q-14.30419-1.17333-28.84375-1.17285-13.59961,0-21.10449,1.40723-7.5044,1.40772-11.72461,4.45508a15.98352,15.98352,0,0,0-5.86231,7.5039,97.96377,97.96377,0,0,0-3.04883,10.083q-.9375,5.15918-2.5791,11.96a73.4981,73.4981,0,0,1-4.9248,13.835q-.9375,2.34522-3.752,8.44239-2.814,6.09668-7.03418,14.30468-4.22167,8.20752-9.37988,17.11817-5.15918,8.9121-10.084,16.415a88.303,88.303,0,0,1-9.61426,12.42871q-4.69043,4.9248-7.97363,4.9248-13.13087,0-17.82227-6.5664a26.71714,26.71714,0,0,1-4.68945-15.94532,48.412,48.412,0,0,1,2.81445-15.71191q2.8125-8.20752,5.1582-13.36621,14.06984-27.66943,28.84375-58.38965,14.773-30.71923,28.6084-62.8457,13.83546-32.1255,26.0293-64.252Q860.47462,794,869.38574,763.51562v.46876q1.40625-4.689,3.51758-10.55176a61.9309,61.9309,0,0,1,5.39356-11.25635,36.90633,36.90633,0,0,1,7.73828-9.145,24.735,24.735,0,0,1,10.55175-5.15918h1.877A23.12965,23.12965,0,0,1,913.47461,732.79736ZM882.52246,859.89551q-7.97315,17.58837-16.415,33.5332a102.4807,102.4807,0,0,0,16.88379,1.40723q5.15917,0,9.61426-.23438,4.4546-.23437,9.61328-.7041a60.47273,60.47273,0,0,1,7.50391-.46875,60.45717,60.45717,0,0,0,7.50293-.46875,273.79014,273.79014,0,0,1-9.37989-33.29883q-1.87645-6.56543-2.5791-10.55273-.70312-3.98584-1.40722-7.26953a42.07751,42.07751,0,0,0-2.11036-6.80078,73.51071,73.51071,0,0,0-4.68945-9.14551Q890.49268,842.30762,882.52246,859.89551Z" transform="translate(-600 -600)"/>
</svg>
