<?xml version="1.0" encoding="UTF-8"?>
<svg id="Layer_1" data-name="Layer 1" xmlns="http://www.w3.org/2000/svg" width="53.65mm" height="53.65mm" viewBox="0 0 152.08 152.08">
  <defs>
    <style>
      .cls-1 {
        fill: #193963;
      }
    </style>
  </defs>
  <polygon class="cls-1" points="76.04 8.98 91.1 55.32 139.82 55.32 100.4 83.95 115.46 130.29 76.04 101.65 36.62 130.29 51.68 83.95 12.26 55.32 60.98 55.32 76.04 8.98"/>
  <path class="cls-1" d="m76.04,9c37.02,0,67.04,30.01,67.04,67.04s-30.01,67.04-67.04,67.04S9,113.06,9,76.04,39.01,9,76.04,9m0-43C46.65-34,19.01-22.55-1.77-1.77c-20.78,20.78-32.23,48.42-32.23,77.81S-22.55,133.07-1.77,153.85c20.78,20.78,48.42,32.23,77.81,32.23s57.03-11.45,77.81-32.23c20.78-20.78,32.23-48.42,32.23-77.81S174.63,19.01,153.85-1.77c-20.78-20.78-48.42-32.23-77.81-32.23h0Z"/>
</svg>