<?xml version="1.0" encoding="UTF-8"?>
<!-- <svg id="Layer_1" data-name="Layer 1" xmlns="http://www.w3.org/2000/svg" viewBox="0 0 214.21 214.34"> -->
<svg id="Layer_1" data-name="Layer 1" xmlns="http://www.w3.org/2000/svg" viewBox="-141 -121 423.21 453.34">
  <defs>
    <style>
      .cls-1 {
        fill: #f5f6f1;
      }
      .cls-2 {
        fill: #204153;
      }
      .cls-3 {
        fill: #204153;
      }
    </style>
  </defs>
  <path class="cls-1" d="m243.62,232.89H-8c0-89,0-178,0-267,83.87,0,167.75,0,251.62,0,0,89,0,178,0,267Zm-194.58-39.53c46.92,31.74,111.6,21.21,144.61-27.46,31.93-47.08,18.32-104.64-15.45-134.34.39,2.53.82,5.02,1.17,7.53,1.32,9.54.82,18.96-1.69,28.28-.48,1.79-1.52,2.86-3.05,3.76-9.16,5.44-19.14,8.08-29.7,8.77-1.65.11-3.29.35-4.93.54-.02.21-.04.41-.06.62.63.29,1.24.66,1.89.87,9.61,3.21,19.48,4.32,29.56,3.6,1.73-.12,2.31.45,1.9,2.1-.62,2.52-1.11,5.07-1.86,7.54-2.57,8.55-6.22,16.54-12.44,23.16-2.69,2.86-5.59,5.24-9.71,5.63-2.4.23-4.79.63-7.19.9-8.86.98-17.66.54-26.39-1.24-.72-.15-1.46-.22-2.19-.32-.08.21-.17.43-.25.64,6.04,8.93,15.02,13.42,25.53,15.93-.62.88-.98,1.44-1.39,1.97-3.54,4.54-7.86,8.15-13.05,10.64-4.56,2.19-9.29,3.78-14.48,3.32-6.85-.61-13.5-2.01-19.83-4.79-.59-.26-1.23-.41-2.16-.7,1.17,3.87,2.59,7.22,4.94,10.04,2.35,2.82,4.95,5.44,7.57,8.3-.64.32-1.32.73-2.04,1.02-4.39,1.73-8.91,2.79-13.66,3.17-6.12.48-11.99-.23-17.74-2.35-1.17-.43-1.47-.89-.92-2.02.92-1.9,1.7-3.86,2.6-5.76,7.63-16.1,17.46-30.78,28.6-44.64,7.59-9.43,15.01-19,22.47-28.53,7-8.95,13.99-17.9,20.91-26.91,5.95-7.74,11.8-15.55,17.67-23.35.34-.45.48-1.06.71-1.59-.74-.03-1.15.11-1.44.39-4.51,4.28-9.13,8.44-13.46,12.9-7.48,7.71-14.86,15.54-22.13,23.45-8.47,9.22-16.94,18.46-25.11,27.94-5.43,6.3-10.51,12.92-15.45,19.62-7.8,10.56-13.95,22.09-19.55,33.97-5.66,12.01-9.27,24.66-12.81,37.41ZM160.84,18.47C120.31-6.6,58.7-1.34,23.74,46.43-9.85,92.33.82,154.07,40.92,187.01c.25-.42.56-.82.75-1.27,3.16-7.59,6.26-15.21,9.51-22.76.64-1.5.46-2.53-.51-3.72-8.22-10.08-10.16-21.36-6.26-33.7.2-.64.66-1.2.88-1.58,3.31,3.48,6.32,6.97,9.68,10.08,4.17,3.87,4.78,3.68,9.1-.05,1.42-1.23,1.39-2.33.37-3.65-3.95-5.1-6.88-10.76-9.04-16.81-.66-1.83-1.42-3.93-1.15-5.75,2.1-13.93,8.26-25.83,18.53-35.53,1.44-1.36,1.97-1.18,2.45.7,2,7.8,5.37,14.9,10.76,20.97.77.87,1.54,1.34,2.73.62,1.13-.68,2.06-1.21,1.57-2.87-2.99-10.02-3.76-20.3-3.19-30.69.17-3.06.25-6.17,2.43-8.79,4.07-4.9,9.37-7.81,15.23-9.9.95-.34,1.53-.02,1.56,1.13.04,1.23.16,2.46.36,3.68,1.32,8.22,3.58,16.17,6.91,23.81.37.86.93,1.64,1.4,2.45.58-.63.78-1.13.81-1.64.53-7.29.85-14.6,1.64-21.86.53-4.92,1.64-9.78,2.65-14.63.33-1.58.9-3.18,2.64-4.02,4.74-2.28,9.33-4.89,14.16-6.93,7.53-3.19,15.5-4.83,23.96-5.83Z"/>
  <path class="cls-2" d="m49.04,193.36c3.54-12.76,7.15-25.4,12.81-37.41,5.6-11.88,11.74-23.41,19.55-33.97,4.95-6.69,10.02-13.32,15.45-19.62,8.17-9.48,16.64-18.72,25.11-27.94,7.27-7.91,14.64-15.74,22.13-23.45,4.32-4.46,8.95-8.62,13.46-12.9.29-.28.71-.43,1.44-.39-.23.53-.37,1.14-.71,1.59-5.87,7.8-11.72,15.61-17.67,23.35-6.92,9.01-13.91,17.96-20.91,26.91-7.46,9.53-14.88,19.1-22.47,28.53-11.15,13.86-20.97,28.54-28.6,44.64-.9,1.9-1.69,3.86-2.6,5.76-.55,1.13-.25,1.59.92,2.02,5.75,2.11,11.62,2.83,17.74,2.35,4.74-.37,9.26-1.44,13.66-3.17.72-.29,1.4-.69,2.04-1.02-2.62-2.85-5.22-5.47-7.57-8.3-2.35-2.82-3.76-6.17-4.94-10.04.93.3,1.57.45,2.16.7,6.33,2.78,12.98,4.18,19.83,4.79,5.19.46,9.92-1.13,14.48-3.32,5.19-2.49,9.51-6.1,13.05-10.64.41-.53.77-1.09,1.39-1.97-10.51-2.51-19.48-7-25.53-15.93.08-.21.17-.43.25-.64.73.11,1.47.18,2.19.32,8.73,1.78,17.53,2.22,26.39,1.24,2.4-.27,4.78-.67,7.19-.9,4.12-.39,7.02-2.77,9.71-5.63,6.22-6.61,9.86-14.6,12.44-23.16.75-2.48,1.24-5.03,1.86-7.54.41-1.66-.17-2.22-1.9-2.1-10.08.72-19.95-.39-29.56-3.6-.65-.22-1.26-.58-1.89-.87.02-.21.04-.41.06-.62,1.64-.18,3.28-.43,4.93-.54,10.56-.69,20.53-3.33,29.7-8.77,1.52-.9,2.56-1.97,3.05-3.76,2.51-9.32,3.01-18.74,1.69-28.28-.35-2.51-.77-5-1.17-7.53,33.77,29.7,47.38,87.27,15.45,134.34-33.01,48.67-97.69,59.19-144.61,27.46Z"/>
  <path class="cls-3" d="m160.84,18.47c-8.45,1-16.43,2.63-23.96,5.83-4.83,2.05-9.42,4.65-14.16,6.93-1.75.84-2.31,2.44-2.64,4.02-1.01,4.85-2.12,9.71-2.65,14.63-.78,7.26-1.1,14.57-1.64,21.86-.04.51-.23,1.01-.81,1.64-.47-.82-1.03-1.59-1.4-2.45-3.33-7.63-5.59-15.59-6.91-23.81-.2-1.22-.32-2.45-.36-3.68-.03-1.15-.61-1.47-1.56-1.13-5.86,2.09-11.16,5-15.23,9.9-2.18,2.62-2.26,5.73-2.43,8.79-.57,10.39.2,20.67,3.19,30.69.49,1.65-.44,2.18-1.57,2.87-1.19.72-1.96.25-2.73-.62-5.39-6.07-8.76-13.17-10.76-20.97-.48-1.88-1-2.06-2.45-.7-10.27,9.71-16.43,21.6-18.53,35.53-.27,1.82.49,3.92,1.15,5.75,2.17,6.04,5.09,11.71,9.04,16.81,1.03,1.32,1.05,2.43-.37,3.65-4.32,3.73-4.92,3.91-9.1.05-3.36-3.11-6.37-6.61-9.68-10.08-.22.38-.67.94-.88,1.58-3.9,12.34-1.96,23.61,6.26,33.7.97,1.19,1.15,2.22.51,3.72-3.24,7.55-6.34,15.17-9.51,22.76-.19.45-.49.85-.75,1.27C.82,154.07-9.85,92.33,23.74,46.43,58.7-1.34,120.31-6.6,160.84,18.47Z"/>
</svg>