<?xml version="1.0" encoding="UTF-8"?>
<svg id="Layer_1" data-name="Layer 1" xmlns="http://www.w3.org/2000/svg" width="20.65mm" height="21.65mm" viewBox="0 0 58.53 61.38">
  <defs>
    <style>
      .cls-1 {
        fill: #ca171e;
      }
    </style>
  </defs>
  <path class="cls-1" d="m31.09.16c26.81,3.1,37.37,37.32,16.13,54.98-18.63,15.49-51.87.22-45.84-24.57,3.18-13.08,20.53-20.38,29.72-9.5,4.79,5.67,4.53,16.01-4.31,16.62.51-1.26,1.5-2.29,1.68-3.7,1-8.04-10.08-10.05-13.08-3.04-3.25,7.59,3.93,13.98,11.27,14.16,13.9.34,22.14-13.12,15.28-25.32-6.04-10.75-19.84-12.75-30.54-8.13-3.72,1.6-6.16,4.12-9.4,5.9-1.03.57-2.32,1.54-1.93-.25C2.16,7.86,13.72,1.2,22.73.16c1.83-.21,6.54-.21,8.37,0Z"/>
</svg>