<svg xmlns="http://www.w3.org/2000/svg" viewBox="0 0 118.53375 25.0829">
  <defs>
    <style>
      .a {
        fill: #58595b;
      }
    </style>
  </defs>
  <g>
    <path class="a" d="M452.188,503.42676c.05371.02636.11328.05322.18017.07959a2.68283,2.68283,0,0,0,.28028.14013,1.31643,1.31643,0,0,0,.52.08008,6.76563,6.76563,0,0,0,.85009-.06006q.47022-.06006.97022-.14013l.92041-.11963a6.66364,6.66364,0,0,1,.85986-.06006,2.57279,2.57279,0,0,1,.54.06006,1.30932,1.30932,0,0,1,.50049.21972,1.25634,1.25634,0,0,1,.36963.4502,1.62962,1.62962,0,0,1,.15039.75.7665.7665,0,0,1-.15039.49023,1.12874,1.12874,0,0,1-.38965.31006,1.73048,1.73048,0,0,1-.56055.16016,5.45345,5.45345,0,0,1-.68017.04c-.21289,0-.43994-.00684-.67969-.02q-.36034-.01977-.70019-.06006-.7002-.06006-1.3003-.06006a4.37271,4.37271,0,0,0-.54.03028.577.577,0,0,0-.34033.12988c-.04.02637-.07324.16015-.1001.3999q-.03954.36034-.06982.83008-.03.47021-.05029.96045-.01979.49-.02.81006a.37137.37137,0,0,0,.25049.39013,2.18481,2.18481,0,0,0,.71.08985c.16015,0,.33984-.00635.54-.02q.30029-.01979.62011-.05957.3003-.04029.61035-.06006.30982-.0205.62989-.02a2.7681,2.7681,0,0,1,1.33056.27,1.069,1.069,0,0,1,.48975,1.03027.8795.8795,0,0,1-.1499.54.97335.97335,0,0,1-.41016.31006,2.20794,2.20794,0,0,1-.6001.1499,6.12745,6.12745,0,0,1-.72021.04q-.26,0-.52979-.00976-.27026-.01026-.51025-.03028c-.147-.01318-.2832-.02-.41016-.02h-.57031a1.1889,1.1889,0,0,1-.23.02h-.25a2.63549,2.63549,0,0,0-.54.05029q-.24024.04981-.24023.38965a5.302,5.302,0,0,0,.09033.88037q.09009.52.21,1.1001.10033.60058.21,1.17041a5.76479,5.76479,0,0,1,.10986,1.09033,2.01366,2.01366,0,0,1-.21.98.78174.78174,0,0,1-.75.38038.76855.76855,0,0,1-.64013-.36036,3.27416,3.27416,0,0,1-.44-.91992,7.72868,7.72868,0,0,1-.28027-1.25049q-.10034-.68994-.1499-1.36035-.0498-.67016-.06006-1.24023-.01026-.56982-.01025-.89014,0-.52.03027-1.26025.03-.74048.06982-1.38037.02052-.38013.04-.66016c.01367-.18652.02-.32666.02-.41992s-.00342-.20362-.00976-.33008c-.00684-.127-.0166-.26367-.03028-.41016q-.01977-.30028-.04-.64013-.01977-.33985-.02-.68018a8.02986,8.02986,0,0,1,.04-.81006,3.17578,3.17578,0,0,1,.15039-.71045,1.51592,1.51592,0,0,1,.29981-.52978.86988.86988,0,0,1,.49023-.27h.12012A.39355.39355,0,0,1,452.188,503.42676Z" transform="translate(-450.84766 -496.03096)"/>
    <path class="a" d="M463.73877,503.69678q.13036-.01026.29-.01026a3.41429,3.41429,0,0,1,1.86035.48047,3.73708,3.73708,0,0,1,1.23047,1.27,5.79462,5.79462,0,0,1,.68017,1.83057,10.88107,10.88107,0,0,1,.21,2.16015,13.87085,13.87085,0,0,1-.29,2.82081,10.6108,10.6108,0,0,1-.79,2.44042,3.57393,3.57393,0,0,1-.53028.7002,8.22338,8.22338,0,0,1-.82031.77,10.197,10.197,0,0,1-.91015.67041,3.541,3.541,0,0,1-.76026.3999,3.48187,3.48187,0,0,1-.68017.06006,3.17593,3.17593,0,0,1-1.96045-.6001,4.57361,4.57361,0,0,1-1.31006-1.58056,7.90332,7.90332,0,0,1-.74024-2.2002,13.257,13.257,0,0,1-.23-2.46045,12.47359,12.47359,0,0,1,.18018-2.00049,7.18326,7.18326,0,0,1,.68017-2.09033,5.57722,5.57722,0,0,1,1.36036-1.73047,4.05943,4.05943,0,0,1,2.24023-.90039C463.55566,503.71338,463.65234,503.70312,463.73877,503.69678Zm-2.08057,3.13037a5.86354,5.86354,0,0,0-.42968,1.1206,9.12088,9.12088,0,0,0-.27,1.41016,13.32977,13.32977,0,0,0-.09034,1.55029,10.83862,10.83862,0,0,0,.13038,1.74024,5.02473,5.02473,0,0,0,.40966,1.38037,2.34659,2.34659,0,0,0,.72022.90039,1.75423,1.75423,0,0,0,1.06054.31982,1.86072,1.86072,0,0,0,1.3501-.56006,4.40584,4.40584,0,0,0,.94043-1.42041,8.83985,8.83985,0,0,0,.56006-1.89013,10.79094,10.79094,0,0,0,.18994-1.95069,4.86553,4.86553,0,0,0-.59033-2.61035,2.05132,2.05132,0,0,0-1.87012-.93017,8.1256,8.1256,0,0,0-.82031.0498,1.86055,1.86055,0,0,0-.72021.18994A1.8867,1.8867,0,0,0,461.6582,506.82715Z" transform="translate(-450.84766 -496.03096)"/>
    <path class="a" d="M474.39844,503.69678q.13036-.01026.29-.01026a3.41429,3.41429,0,0,1,1.86035.48047,3.73718,3.73718,0,0,1,1.23047,1.27,5.79486,5.79486,0,0,1,.68017,1.83057,10.88107,10.88107,0,0,1,.21,2.16015,13.87085,13.87085,0,0,1-.29,2.82081,10.61081,10.61081,0,0,1-.79,2.44042,3.57433,3.57433,0,0,1-.53028.7002,8.22338,8.22338,0,0,1-.82031.77,10.19859,10.19859,0,0,1-.91016.67041,3.541,3.541,0,0,1-.76025.3999,3.4819,3.4819,0,0,1-.68018.06006,3.176,3.176,0,0,1-1.96045-.6001,4.5737,4.5737,0,0,1-1.31-1.58056,7.903,7.903,0,0,1-.74024-2.2002,13.257,13.257,0,0,1-.23-2.46045,12.47359,12.47359,0,0,1,.18018-2.00049,7.16863,7.16863,0,0,1,.68017-2.09033,5.57719,5.57719,0,0,1,1.36035-1.73047,4.0595,4.0595,0,0,1,2.24024-.90039C474.21533,503.71338,474.312,503.70312,474.39844,503.69678Zm-2.08008,3.13037a5.83134,5.83134,0,0,0-.43018,1.1206,9.06554,9.06554,0,0,0-.27,1.41016,13.332,13.332,0,0,0-.09033,1.55029,10.83982,10.83982,0,0,0,.13037,1.74024,5.02506,5.02506,0,0,0,.40967,1.38037,2.34659,2.34659,0,0,0,.72022.90039,1.75421,1.75421,0,0,0,1.06054.31982,1.86072,1.86072,0,0,0,1.3501-.56006,4.406,4.406,0,0,0,.94043-1.42041,8.83985,8.83985,0,0,0,.56006-1.89013,10.79185,10.79185,0,0,0,.18994-1.95069,4.86553,4.86553,0,0,0-.59033-2.61035,2.05185,2.05185,0,0,0-1.87012-.93017,8.1256,8.1256,0,0,0-.82031.0498,1.86066,1.86066,0,0,0-.72022.18994A1.88115,1.88115,0,0,0,472.31836,506.82715Z" transform="translate(-450.84766 -496.03096)"/>
    <path class="a" d="M482.34766,504.07666c.09326.04688.18652.08984.27978.12988a.49307.49307,0,0,0,.12012.06006.51028.51028,0,0,0,.16015.02c.08008,0,.16651-.00342.26026-.00976.09326-.00684.19336-.01661.2998-.03028.05323,0,.1167-.00342.18994-.00976a1.92222,1.92222,0,0,0,.21-.03028,1.47713,1.47713,0,0,1,.24023-.02h.12012a.44822.44822,0,0,1,.08984.01026.4933.4933,0,0,0,.09033.00976,5.7183,5.7183,0,0,1,2.26026.72022,4.74953,4.74953,0,0,1,1.54052,1.46045,6.35963,6.35963,0,0,1,.87989,2.08056,11.05887,11.05887,0,0,1,.28027,2.56055,7.52634,7.52634,0,0,1-.68018,3.27051,5.68711,5.68711,0,0,1-1.88037,2.27051,8.32135,8.32135,0,0,1-.76025.41992,10.833,10.833,0,0,1-1.04.45019,11.71189,11.71189,0,0,1-1.13037.36035,4.10515,4.10515,0,0,1-1.03027.14991,1.55293,1.55293,0,0,1-1.17041-.33008,1.42975,1.42975,0,0,1-.29-.97022,1.78858,1.78858,0,0,1,.01025-.18017c.00635-.06641.00977-.1333.00977-.2002a.98967.98967,0,0,0,.02-.1997v-.2002q0-.65991-.06006-1.52051-.06006-.85986-.13965-1.56006-.06006-.52-.1001-.99023-.04027-.47022-.04-.75,0-.44019.02979-.91016.03-.47021.07031-.93017.03955-.44019.06982-.89063.03-.4497.02979-.85009a5.03087,5.03087,0,0,0-.13965-1.22022q-.04028-.13989-.1001-.2998a4.44807,4.44807,0,0,1-.22021-.47022,1.42017,1.42017,0,0,1-.1001-.53027.861.861,0,0,1,.26025-.6499,1.5217,1.5217,0,0,1,.96-.29h.02A.85753.85753,0,0,1,482.34766,504.07666Zm5.14111,7.55176a6.42123,6.42123,0,0,0,.04-.7002,6.73666,6.73666,0,0,0-.24024-1.82031,4.84943,4.84943,0,0,0-.70019-1.51074,3.39954,3.39954,0,0,0-1.15039-1.02979,3.24223,3.24223,0,0,0-1.59033-.38037c-.1333,0-.27637.00684-.43018.02q-.23.01977-.44971.06006v1.66016q0,1.98047.04981,4.041a28.83319,28.83319,0,0,0,.33008,3.8208,6.42705,6.42705,0,0,0,1.42041-.3999,4.81723,4.81723,0,0,0,1.21045-.71045,4.11233,4.11233,0,0,0,.89013-1,3.72393,3.72393,0,0,0,.5-1.29Q487.4485,511.988,487.48877,511.62842Z" transform="translate(-450.84766 -496.03096)"/>
    <path class="a" d="M502.49805,503.4165c.167-.00683.34375-.00976.53027-.00976q.38087,0,.75.02978a1.96753,1.96753,0,0,1,.64063.14991,1.08492,1.08492,0,0,1,.43945.35009,1.00381,1.00381,0,0,1,.16992.61036,1.72047,1.72047,0,0,1-.2793.93994.93023.93023,0,0,1-.84082.44043.94529.94529,0,0,1-.50976-.11036,1.90757,1.90757,0,0,1-.31055-.25,1.7257,1.7257,0,0,0-.16992-.1499.43165.43165,0,0,0-.26953-.06982,1.97307,1.97307,0,0,0-.66016.11963,3.849,3.849,0,0,0-.65039.30029,4.51785,4.51785,0,0,0-.57031.39014,5.72311,5.72311,0,0,0-.43946.39013,2.58968,2.58968,0,0,0-.51074.81006,9.22633,9.22633,0,0,0-.41015,1.17041,10.54565,10.54565,0,0,0-.27979,1.32031,8.62136,8.62136,0,0,0-.1001,1.24024,6.0071,6.0071,0,0,0,.28028,1.68017,4.36174,4.36174,0,0,0,.7705,1.4502,3.86815,3.86815,0,0,0,1.28028,1.02051,3.91339,3.91339,0,0,0,1.79.39013q.20069,0,.46-.02a4.75492,4.75492,0,0,0,.52051-.07032,2.7839,2.7839,0,0,0,.49023-.14013,1.06908,1.06908,0,0,0,.37012-.23l.08008-.16016c.0664-.11963.14257-.25.22949-.38965a4.231,4.231,0,0,1,.29-.41016,1.4466,1.4466,0,0,1,.37011-.33007.87236.87236,0,0,1,.46973-.13037.55315.55315,0,0,1,.31055.12011,1.47309,1.47309,0,0,1,.32031.32031,1.99267,1.99267,0,0,1,.25.4502,1.36491,1.36491,0,0,1,.09961.50977,1.1058,1.1058,0,0,1-.24023.53027,6.49565,6.49565,0,0,1-.58985.73,6.30068,6.30068,0,0,1-.75976.7002,2.43553,2.43553,0,0,1-.73047.42041,4.391,4.391,0,0,1-.85059.16992,9.41031,9.41031,0,0,1-.99023.0498,8.81425,8.81425,0,0,1-1.03028-.06006,6.57229,6.57229,0,0,1-.88965-.15966,4.50327,4.50327,0,0,1-1.81054-.9502,5.84771,5.84771,0,0,1-1.28028-1.59033,7.63606,7.63606,0,0,1-.76025-2.03076,10.22319,10.22319,0,0,1-.25-2.25049,10.48109,10.48109,0,0,1,.31006-2.53028,7.97148,7.97148,0,0,1,.92041-2.25048,5.73668,5.73668,0,0,1,1.52978-1.67041,4.404,4.404,0,0,1,2.1211-.81006C502.20117,503.43311,502.332,503.42334,502.49805,503.4165Z" transform="translate(-450.84766 -496.03096)"/>
    <path class="a" d="M513.31836,503.69678q.12891-.01026.29-.01026a3.41429,3.41429,0,0,1,1.86035.48047,3.73422,3.73422,0,0,1,1.22949,1.27,5.80718,5.80718,0,0,1,.68067,1.83057,10.91845,10.91845,0,0,1,.21,2.16015,13.87085,13.87085,0,0,1-.29,2.82081,10.6108,10.6108,0,0,1-.79,2.44042,3.53533,3.53533,0,0,1-.53027.7002,8.33109,8.33109,0,0,1-.82032.77,10.197,10.197,0,0,1-.91015.67041,3.56213,3.56213,0,0,1-.75977.3999,3.487,3.487,0,0,1-.68066.06006,3.17347,3.17347,0,0,1-1.96-.6001,4.56418,4.56418,0,0,1-1.31055-1.58056,7.91922,7.91922,0,0,1-.74023-2.2002,13.25669,13.25669,0,0,1-.23047-2.46045,12.47806,12.47806,0,0,1,.18066-2.00049,7.19671,7.19671,0,0,1,.67969-2.09033,5.59876,5.59876,0,0,1,1.36035-1.73047,4.06113,4.06113,0,0,1,2.24121-.90039C513.13477,503.71338,513.23145,503.70312,513.31836,503.69678Zm-2.08106,3.13037a5.92932,5.92932,0,0,0-.42968,1.1206,9.17865,9.17865,0,0,0-.27051,1.41016,13.43825,13.43825,0,0,0-.08984,1.55029,10.841,10.841,0,0,0,.12988,1.74024,5.04135,5.04135,0,0,0,.41015,1.38037,2.33867,2.33867,0,0,0,.72071.90039,1.75125,1.75125,0,0,0,1.05957.31982,1.861,1.861,0,0,0,1.35058-.56006,4.40584,4.40584,0,0,0,.94043-1.42041,8.81111,8.81111,0,0,0,.55957-1.89013,10.7494,10.7494,0,0,0,.19043-1.95069,4.8747,4.8747,0,0,0-.58984-2.61035,2.0535,2.0535,0,0,0-1.87109-.93017,8.14206,8.14206,0,0,0-.82032.0498,1.86287,1.86287,0,0,0-.71972.18994A1.882,1.882,0,0,0,511.2373,506.82715Z" transform="translate(-450.84766 -496.03096)"/>
    <path class="a" d="M522.50684,503.62646c.14648-.01318.31347-.02.5-.02a4.49878,4.49878,0,0,1,.78027.07031,2.68631,2.68631,0,0,1,.71.21972,1.45281,1.45281,0,0,1,.51074.4004.94789.94789,0,0,1,.19922.60986.79687.79687,0,0,1-.14941.46045.7836.7836,0,0,1-.35059.23974,1.847,1.847,0,0,1-.50976.1001q-.29.02051-.61036.02-.37939.01977-.79.06006a2.22109,2.22109,0,0,0-.75977.21,1.35645,1.35645,0,0,0-.57031.53027,1.87482,1.87482,0,0,0-.22071.98.77263.77263,0,0,0,.90039.82032c.22657,0,.4375-.00684.63086-.02s.38282-.02686.56934-.04c.14746-.01319.30078-.02344.46-.02979.16016-.00683.30762-.01025.44043-.01025a3.66615,3.66615,0,0,1,.9502.12012,2.93631,2.93631,0,0,1,.89062.41992,5.41062,5.41062,0,0,1,.66016.65039,6.557,6.557,0,0,1,.66992.91992,5.9169,5.9169,0,0,1,.51953,1.10059,3.51162,3.51162,0,0,1,.21094,1.18994,3.86016,3.86016,0,0,1-.24024,1.14062,8.52738,8.52738,0,0,1-.64062,1.43994,8.06251,8.06251,0,0,1-.90039,1.31055,2.46621,2.46621,0,0,1-1,.77,3.66222,3.66222,0,0,1-.72949.1499,8.01375,8.01375,0,0,1-.93067.0503,10.509,10.509,0,0,1-1.60058-.12012,7.4223,7.4223,0,0,1-1.38965-.34033,2.86077,2.86077,0,0,1-.98047-.56006,1.05174,1.05174,0,0,1-.37012-.79981,1.33627,1.33627,0,0,1,.21973-.74023.81433.81433,0,0,1,.74023-.34033,1.11373,1.11373,0,0,1,.60059.15039,4.434,4.434,0,0,1,.43945.31006v-.02c.10742.08008.207.15332.30078.21972a.53181.53181,0,0,0,.31934.1001,1.10739,1.10739,0,0,0,.12012-.00976c.05371-.00684.11328-.01661.18066-.03028.08008-.01318.16309-.02637.25-.04a3.00137,3.00137,0,0,1,.41016-.02h.41992q.12012,0,.24023.01026c.08008.00634.15918.00976.23926.00976a5.55182,5.55182,0,0,0,.76074-.0498,1.142,1.142,0,0,0,.58008-.23,2.11245,2.11245,0,0,0,.62988-.92041,3.62082,3.62082,0,0,0,.08985-2.27051,2.4976,2.4976,0,0,0-.43946-.87012,2.17276,2.17276,0,0,0-.78027-.61035,2.61776,2.61776,0,0,0-1.14062-.23,7.90186,7.90186,0,0,0-.98047.06006c-.15918.01367-.31934.02344-.4795.03027q-.24023.00952-.46.00977a3.19264,3.19264,0,0,1-.88086-.12012,1.85806,1.85806,0,0,1-1.26953-1.20019,3.64536,3.64536,0,0,1-.19043-1.28028,3.86,3.86,0,0,1,.25-1.38037,4.59985,4.59985,0,0,1,.65039-1.18017,4.29746,4.29746,0,0,1,.90039-.87989,2.57676,2.57676,0,0,1,1.01954-.46045h.0205A2.61543,2.61543,0,0,1,522.50684,503.62646Z" transform="translate(-450.84766 -496.03096)"/>
    <path class="a" d="M534.47754,503.68652q.47022.02052.99023.0503c.34668.02.70411.04638,1.07032.08007.36718.03321.71679.06983,1.05078.10987a1.129,1.129,0,0,1,.76953.29.843.843,0,0,1,.23047.59033,1.00942,1.00942,0,0,1-.12989.48,1.67684,1.67684,0,0,1-.35058.43994,2.01935,2.01935,0,0,1-.49024.33008,1.29274,1.29274,0,0,1-.56933.12988,2.51437,2.51437,0,0,1-.541-.07959q-.33984-.08056-.71972-.18017-.33986-.10035-.67969-.18018a2.67417,2.67417,0,0,0-.60059-.08008.48863.48863,0,0,0-.20019.02h.0205c-.02734.01367-.05371.13037-.08007.3501-.02735.22021-.05664.49023-.08985.81006-.03418.32031-.06347.667-.09082,1.04053q-.03954.56029-.05957,1.04l-.04.56006c-.01367.187-.02636.3335-.04.44043a.98906.98906,0,0,0-.01953.19971v.20019a8.38375,8.38375,0,0,0,.0791,1.11036q.08058.58959.16016,1.05029c.02734.19971.05371.3667.08008.5a2.0881,2.0881,0,0,1,.04.41992c0,.10693-.00293.22363-.00977.3501s-.0166.25-.03027.37012c-.0127.12011-.02637.23339-.04.33984a2.71027,2.71027,0,0,0-.01953.32031,1.2943,1.2943,0,0,0,.01953.23975,1.53017,1.53017,0,0,1,.06055.16015l.08007.24024h-.0205q.0996.21972.18066.45019a1.37782,1.37782,0,0,1,.0791.44971.7305.7305,0,0,1-.14941.30029c-.10059.14649-.2168.3003-.35059.46a3.4313,3.4313,0,0,1-.41015.42041.60008.60008,0,0,1-.34961.17968.63.63,0,0,1-.48047-.18994,1.28424,1.28424,0,0,1-.2793-.5,3.34944,3.34944,0,0,1-.14062-.70019,7.82971,7.82971,0,0,1-.04-.79c0-.2002.0039-.40039.00976-.6001.00684-.2002.01758-.38672.03028-.56006a3.502,3.502,0,0,0,.0205-.3501V513.689q0-.52074-.04-1.21044-.041-.69-.08008-1.47022-.041-.88037-.08008-1.79053-.03955-.91039-.04-1.69043a1.27227,1.27227,0,0,1,.04-.27c.02637-.11328.05273-.23681.08008-.37011.02636-.1333.05664-.27.08984-.41016a1.85341,1.85341,0,0,0,.04981-.42969.27576.27576,0,0,0-.08985-.23047,1.206,1.206,0,0,0-.5498-.06982h-.41016c-.14062,0-.29.00684-.45019.02-.18653.01318-.37012.02344-.54981.02979q-.271.01025-.55078.01025c-.30664,0-.59277-.01318-.86035-.04a3.20119,3.20119,0,0,1-.71973-.1499,1.16329,1.16329,0,0,1-.5-.31006.77708.77708,0,0,1-.18066-.54.72359.72359,0,0,1,.30078-.62012,2.1363,2.1363,0,0,1,.83984-.33008,8.06427,8.06427,0,0,1,1.27051-.14013q.72949-.03,1.61035-.03028.46,0,.84961.01026c.26074.00635.49024.00976.69043.00976h.54C533.90137,503.6665,534.16406,503.67334,534.47754,503.68652Z" transform="translate(-450.84766 -496.03096)"/>
  </g>
</svg>
