<?xml version="1.0" encoding="utf-8"?>
<svg xmlns="http://www.w3.org/2000/svg" viewBox="-600 -600 1500 1500">
  <defs>
    <style>
      .a {
        fill: #3a70ac;
      }
      .b {
        fill: #fff;
      }
    </style>
  </defs>
  <circle class="a" cx="299.70999" cy="299.70999" r="299.70999"/>
  <path class="b" d="M 456.653 127.076 C 463.36 136.314 462.969 142.601 463.027 153.967 C 463.101 160.172 463.101 160.172 463.176 166.504 C 463.177 170.996 463.177 175.489 463.178 180.116 C 463.226 184.778 463.275 189.439 463.327 194.242 C 463.453 206.697 463.536 219.15 463.592 231.607 C 463.834 322.069 463.834 322.069 471.096 412.162 C 472.443 424.57 473.266 436.339 472.658 448.798 C 468.954 452.504 468.954 452.504 461.297 452.867 C 458.244 452.823 455.191 452.78 452.046 452.737 C 447.453 452.686 447.453 452.686 442.767 452.635 C 439.22 452.571 439.22 452.571 435.602 452.504 C 434.35 437.607 433.122 422.705 431.897 407.804 C 431.542 403.603 431.188 399.402 430.825 395.073 C 430.491 390.976 430.156 386.879 429.812 382.659 C 429.5 378.914 429.191 375.169 428.871 371.311 C 428.133 358.866 428.189 346.385 428.189 333.92 C 400.063 333.92 371.936 333.92 342.957 333.92 C 342.957 374.277 342.957 414.631 342.957 456.21 C 332.001 461.689 321.68 460.139 309.607 459.916 C 308.737 399.023 309.296 338.277 312.171 277.439 C 312.466 271.138 312.745 264.837 313.011 258.534 C 316.723 171.956 316.723 171.956 342.957 141.221 C 368.299 125.095 429.372 107.877 456.653 127.076 Z" fill="#F9FAFC" style=""/>
  <path class="b" d="M 150.492 126.166 C 155.879 126.281 155.879 126.281 161.376 126.398 C 173.973 146.997 182.835 167.957 191.253 190.554 C 192.508 193.838 193.761 197.123 195.054 200.505 C 202.341 219.831 208.805 239.226 214.501 259.078 C 216.844 266.829 219.566 274.272 222.521 281.808 C 229.247 300.025 234.089 318.893 239.196 337.625 C 240.421 267.92 241.643 198.215 242.904 126.398 C 265.137 126.398 265.137 126.398 276.254 133.809 C 277.576 144.977 277.576 144.977 277.47 159.634 C 277.466 162.332 277.46 165.029 277.454 167.808 C 277.418 176.858 277.301 185.905 277.181 194.955 C 277.137 201.294 277.095 207.636 277.059 213.976 C 276.443 297.199 274.472 380.419 272.549 463.621 C 262.177 468.807 254.372 468.264 242.904 467.326 C 231.35 458.82 229.273 449.736 226.197 436.074 C 225.233 431.956 224.269 427.837 223.276 423.594 C 222.263 419.147 221.249 414.701 220.205 410.12 C 207.149 355.162 190.292 302.358 172.492 248.689 C 171.27 319.617 170.047 390.543 168.788 463.621 C 160.227 463.621 151.667 463.621 142.848 463.621 C 133.416 449.475 134.42 438.093 134.536 421.706 C 134.528 418.565 134.521 415.425 134.515 412.19 C 134.501 401.801 134.541 391.412 134.582 381.024 C 134.586 373.822 134.589 366.617 134.587 359.413 C 134.593 344.318 134.625 329.221 134.674 314.124 C 134.737 294.73 134.751 275.334 134.747 255.94 C 134.749 241.068 134.769 226.197 134.795 211.326 C 134.808 204.172 134.816 197.016 134.818 189.864 C 134.825 179.89 134.858 169.918 134.899 159.942 C 134.897 156.96 134.895 153.975 134.893 150.901 C 135.036 126.482 135.036 126.482 150.492 126.166 Z" style=""/>
  <path class="a" d="M 428.189 156.044 C 428.189 203.737 428.189 251.429 428.189 300.569 C 401.286 300.569 374.382 300.569 346.664 300.569 C 345.978 273.829 346.977 247.71 349.675 221.126 C 349.934 218.277 350.195 215.429 350.462 212.494 C 352.252 196.18 354.732 184.123 365.192 170.869 C 386.752 159.69 404.114 156.044 428.189 156.044 Z" style=""/>
</svg>