<svg id="Layer_1" data-name="Layer 1" xmlns="http://www.w3.org/2000/svg" viewBox="-600 -600 1500 1500">
    <defs>
    <style>
      .cls-1 {
        fill: #706159;
      }

      .cls-2 {
        fill: #fff;
      }
    </style>
  </defs>
  <circle class="cls-1" cx="299.71" cy="299.71" r="299.71"/>
  <g>
    <path class="cls-2" d="M124.16,318.79c0-90.84,9.76-163.47,29.48-179.51,33.61-27.31,50.74-26.88,72-26.88,56.8,0,72,81.73,72,182.11,0,77.18-20,176.9-82.39,176.9C139.77,471.41,124.16,405.07,124.16,318.79Zm137-57.23c0-38.81-15.18-112.74-38.16-112.74-14.09,0-30.14,3.47-47.7,21.68-9.53,10-11.49,52.68-14.74,123.14-3,64-5.63,139.18,55.5,139.18C246.65,432.82,261.18,319.87,261.18,261.56Z" transform="translate(-0.06 0)"/>
    <path class="cls-2" d="M358.08,443.45V325.51c0-57.45-3.46-121.19-10.4-191.65-.87-5.85,7.15-8.67,17.34-8.67H466.48c3.25,0,3.47,6.72,3.47,23.41,0,6.94-3.25,10.41-9.54,10.41-30.13,0-51,.43-74.58,1.73,0,4.34,1.74,38.81,5.21,103.2l60.7-1.73c4.55,0,6.94,6.28,6.94,19.07,0,11.06-3.47,16.48-10.41,16.48l-56.37,2.6c1.09,59.4,2.39,99.51,3.47,122.06,15.4-.87,43.8-2.39,72.41-4.12,7.81,0,8.68,5.64,8.68,22.55,0,10.4-3.26,14.52-16.48,15.61-39.68,2.38-74.36,3.46-96.69,3.46C357.65,459.92,358.08,451,358.08,443.45Z" transform="translate(-0.06 0)"/>
  </g>
</svg>
